/* XPM */
static const char *render_SlitScanLens_xpm[] = {
/* width height num_colors chars_per_pixel */
"    32    32      256            2",
/* colors */
"`` c #04060c",
"`. c #6c727c",
"`# c #343e4c",
"`a c #1c2224",
"`b c #a4a6a4",
"`c c #2c3244",
"`d c #545a6c",
"`e c #8c8e8c",
"`f c #2c2624",
"`g c #141614",
"`h c #7c8284",
"`i c #1c223c",
"`j c #4c4e4c",
"`k c #444244",
"`l c #646664",
"`m c #c4c2c4",
"`n c #3c3a3c",
"`o c #7c7674",
"`p c #2c324c",
"`q c #141a2c",
"`r c #1c2a44",
"`s c #0c0e14",
"`t c #242a2c",
"`u c #8c8684",
"`v c #1c222c",
"`w c #9c9a9c",
"`x c #3c425c",
"`y c #b4b6b4",
"`z c #64625c",
"`A c #1c1e1c",
"`B c #848a8c",
"`C c #444a4c",
"`D c #6c6e6c",
"`E c #7c7e7c",
"`F c #343a44",
"`G c #1c1a24",
"`H c #84868c",
"`I c #24263c",
"`J c #cccecc",
"`K c #343a4c",
"`L c #0c0a0c",
"`M c #747a7c",
"`N c #343234",
"`O c #5c626c",
"`P c #949694",
"`Q c #2c2e34",
"`R c #141624",
"`S c #1c264c",
"`T c #4c5674",
"`U c #6c6664",
"`V c #1c1e2c",
"`W c #242a3c",
"`X c #141214",
"`Y c #747274",
"`Z c #3c3e44",
"`0 c #24221c",
"`1 c #acaeac",
"`2 c #5c5e64",
"`3 c #949294",
"`4 c #84827c",
"`5 c #1c263c",
"`6 c #444654",
"`7 c #34364c",
"`8 c #24262c",
".` c #847e7c",
".. c #242e4c",
".# c #040a14",
".a c #545e74",
".b c #8c9294",
".c c #141a1c",
".d c #54524c",
".e c #444644",
".f c #646a6c",
".g c #cccacc",
".h c #7c7a74",
".i c #2c364c",
".j c #141e34",
".k c #0c121c",
".l c #a4a2a4",
".m c #3c466c",
".n c #bcbebc",
".o c #4c4a44",
".p c #d4d6d4",
".q c #343644",
".r c #342e2c",
".s c #242e44",
".t c #747674",
".u c #242624",
".v c #848684",
".w c #040614",
".x c #343e54",
".y c #acaaac",
".z c #2c3644",
".A c #545a74",
".B c #8c8e94",
".C c #2c2a24",
".D c #14161c",
".E c #1c2244",
".F c #64666c",
".G c #c4c6c4",
".H c #2c3254",
".I c #141a34",
".J c #0c0e1c",
".K c #242a34",
".L c #8c8a8c",
".M c #1c2234",
".N c #9c9e9c",
".O c #3c465c",
".P c #bcbabc",
".Q c #646264",
".R c #6c6e74",
".S c #7c7e84",
".T c #848694",
".U c #d4d2d4",
".V c #343a54",
".W c #0c0a14",
".X c #34323c",
".Y c #2c2e3c",
".Z c #141a24",
".0 c #545664",
".1 c #6c6a6c",
".2 c #1c1e34",
".3 c #242a44",
".4 c #14121c",
".5 c #3c4254",
".6 c #242224",
".7 c #b4b2b4",
".8 c #848284",
"#` c #1c2644",
"#. c #242634",
"## c #847e84",
"#a c #545254",
"#b c #44464c",
"#c c #7c7a7c",
"#d c #4c4a4c",
"#e c #74767c",
"#f c #000000",
"#g c #000000",
"#h c #000000",
"#i c #000000",
"#j c #000000",
"#k c #000000",
"#l c #000000",
"#m c #000000",
"#n c #000000",
"#o c #000000",
"#p c #000000",
"#q c #000000",
"#r c #000000",
"#s c #000000",
"#t c #000000",
"#u c #000000",
"#v c #000000",
"#w c #000000",
"#x c #000000",
"#y c #000000",
"#z c #000000",
"#A c #000000",
"#B c #000000",
"#C c #000000",
"#D c #000000",
"#E c #000000",
"#F c #000000",
"#G c #000000",
"#H c #000000",
"#I c #000000",
"#J c #000000",
"#K c #000000",
"#L c #000000",
"#M c #000000",
"#N c #000000",
"#O c #000000",
"#P c #000000",
"#Q c #000000",
"#R c #000000",
"#S c #000000",
"#T c #000000",
"#U c #000000",
"#V c #000000",
"#W c #000000",
"#X c #000000",
"#Y c #000000",
"#Z c #000000",
"#0 c #000000",
"#1 c #000000",
"#2 c #000000",
"#3 c #000000",
"#4 c #000000",
"#5 c #000000",
"#6 c #000000",
"#7 c #000000",
"#8 c #000000",
"a` c #000000",
"a. c #000000",
"a# c #000000",
"aa c #000000",
"ab c #000000",
"ac c #000000",
"ad c #000000",
"ae c #000000",
"af c #000000",
"ag c #000000",
"ah c #000000",
"ai c #000000",
"aj c #000000",
"ak c #000000",
"al c #000000",
"am c #000000",
"an c #000000",
"ao c #000000",
"ap c #000000",
"aq c #000000",
"ar c #000000",
"as c #000000",
"at c #000000",
"au c #000000",
"av c #000000",
"aw c #000000",
"ax c #000000",
"ay c #000000",
"az c #000000",
"aA c #000000",
"aB c #000000",
"aC c #000000",
"aD c #000000",
"aE c #000000",
"aF c #000000",
"aG c #000000",
"aH c #000000",
"aI c #000000",
"aJ c #000000",
"aK c #000000",
"aL c #000000",
"aM c #000000",
"aN c #000000",
"aO c #000000",
"aP c #000000",
"aQ c #000000",
"aR c #000000",
"aS c #000000",
"aT c #000000",
"aU c #000000",
"aV c #000000",
"aW c #000000",
"aX c #000000",
"aY c #000000",
"aZ c #000000",
"a0 c #000000",
"a1 c #000000",
"a2 c #000000",
"a3 c #000000",
"a4 c #000000",
"a5 c #000000",
"a6 c #000000",
"a7 c #000000",
"a8 c #000000",
/* pixels */
".g.n.n.P`y`y`y`y.P.P.P.P.P.P.n.G.U.T.E`r`S.a.p.G.n.P`y`y`y`y.P.G",
"`m.n.P`y`y.7.7`y`y`y`1.l`w`3`e.L.L.i`p.f`O.H`m`m.P`y`y`y`y`y`y.P",
".n.P`y.7.7.7.7`y`1.N`3.B.B`e.L`H.v.x.5`Y.0..`e`1.P`y.7.7.7.7`y`y",
".n`y`y.7.7.7.7.l`3`3.b.L.v.8`E`E.h`K.Y`j#b..`E.v`w.7`y.7.7.7`y`y",
".P`y`y.7`y.7`w`3`3.L.8.8`E`E#c`o.t.x`v`n`Q#``E.L.v`e`1`y.7.7.7`y",
".P`y.7`y.7`w`3`3.v.8.8`E#c#c`o`o.t`#`R.C`a`5.t.8.v.v`e`1.7.7.7`y",
".P`y`y`y`w`3.b.v.8`E#c#c`E`E`E#c.h`K.Z.r.6`i`Y.8.8.v.v`e`1.7.7`y",
".n`y`y.l`3`3.v.8`E#c`E.8.8`E#c.t`Y`7.w`g`G`5`Y`E.8.8.v.8`P`y.7`y",
".n.P`1`3`3.v.8`E#c`E`E`E`E`E#c#c.h`#.D.D``.2`Y`E`E.8.v.v.8.l`y`y",
".n`y.N`3.L.8.8#c`E.8#c#c#c.t`Y`Y`D`c.4`N`8`q.F#c`E##.v.v.8`e.7`y",
".n`1`3.b.8.8`E`E.8`E#c.t.t#c`E`E`D`c```L.c.M`l`Y`E`E.8.v.8.8`b`y",
".n`b.b.L.8.8#c.8`E`E.t#c`e.v.8`E`Y`c.#`g.W.M.t`D#e.`.8.v.v.``P`y",
".P`w.B.v.8`E`E.8`E`E`Y`e`w.L`E#c`Y`c.J`g`X`q.t.t`Y`E.8.v.v.8.L.7",
"`y`3`e.8.8#c.8.8`E#c.t`E.8`E#c.t.t`c.k`A`s`q`l`E.R#c.8.v.v.8.8`1",
".7`3`e.8.8`E.8`E`E#c.8.8#c`E.v#c.t.z`R`0`X`q.Q.8`Y#c.8.v.v.8`E`b",
".7.B.L.8.8`E`E#c`E.t#c`E`E#c`E.S#c`c.Z.u.D`q.Q`E#c#c.8.v.v.8#c`b",
".7`e.L.8.8`E`E#c`E.t.t.t#c#c#c.8#c.z`8`n`8`i.1`E`E`E.8.v.v.8#c`b",
".7`e.L.8.v`E`E.t`E.t.t.t#c#c#c.t`4.5.K.e`Q.3`D.8.8`E.8.v.v.8#c`b",
"`y`3.L.8.v`E`E.t#c#c.t.t#c#c.t#c`E.V.q`D`C.s`Y.v.8`E.8.v.v.``E.y",
".P`P.L.v.v.8`E#e.t`E.t.t.t.t#c#c#c.i.0`1`H#`.t.L.8`E.v`H.v`E.8.7",
".P.N.L.v.v.v`E#c`Y`E`E.t.t`Y.t.t.h`p`O`J`h`i.8.8`E.8.v.L.8#c`3.P",
".P`1.L.L.8.L.8`E#e.t.8`E.t.t#c`E`e.O`.`e`t`W`E.``E.8.L`H`E#c.l.P",
".P`y`P.L.v.v`B`E`E.t.t.8.8#c.t`E.v`#`v`k#b`I.t`E.S.v.L.v#c.v.7`y",
".P`y.y.L.L.v.L.v`E`E`M.t#c.S`E#c.h.q.q`z`Z.M.R`E.v.L.v`E#c.N`y`y",
".P`y`y`w.v`H.v.L.v.8###c.t`Y`Y#e#c`F`Q.o`Q.M`Y.v.v.v.8#c.L`y`y`y",
".P`y`y.7.B.v.v.8`H.L.v.8`E#c.t.t`Y.z`v`n`Q`5`E.v.v.8`E.v.y.7.7`y",
".P`y`y`y`1`e.v.v.8.v.L.L.v.8`E#c.h`K.Y#a#b.3#c.v.v.8.v.l`1.y`1.7",
"`y`y`y`y`y`1`e.8.v.8.v`H.L.L.v.v.v`x`6.Q#b`i.t.8.``u.l`1.y.y.y`1",
"`y`y`y`y.7`y.7`P.8.8.8.8.8.8.8`E`4.x.q#d.X.I.1`E`e.y`1.y.y.y.y`1",
".P`y`y`y`y.7`y`y`b.L#c#c#c.t.t.t`Y`7`V`f.D.j#c.l.7`1.y.y.y.y.y.7",
".P`y`y`y`y.7.7`y.P.P.y`P.8.t`Y`U`l`c#..d`2.x.P`y.7`1`1.y.y.y`1`y",
".P.P`y`y`y`y`y`y.P`m.G.G`m.P.7`1`y`d...A`T.m.g`y.7.7`1`1.y.y`1.P"
};
